<svg width="74px" height="74px" viewBox="0 0 74 74" version="1.1" xmlns="http://www.w3.org/2000/svg" xmlns:xlink="http://www.w3.org/1999/xlink">
    <!-- Generator: Sketch 51.2 (57519) - http://www.bohemiancoding.com/sketch -->
    <desc>Created with Sketch.</desc>
    <defs></defs>
    <g id="UI" stroke="none" stroke-width="1" fill="none" fill-rule="evenodd">
        <g id="UI-Components" transform="translate(-357.000000, -1140.000000)" fill="#62C4CC">
            <g id="Group-16" transform="translate(69.000000, 990.000000)">
                <g id="popup">
                    <g id="Group-15">
                        <g id="User-2" transform="translate(288.000000, 150.000000)">
                            <path d="M36.8666667,0.0833333333 C16.6162258,0.0833333333 0.2,16.4995592 0.2,36.75 C0.2,57.0004408 16.6162258,73.4166667 36.8666667,73.4166667 C57.1171075,73.4166667 73.5333333,57.0004408 73.5333333,36.75 C73.5333333,16.4995592 57.1171075,0.0833333333 36.8666667,0.0833333333 Z M5.2,36.75 C5.19898749,22.8809385 14.223031,10.6250081 27.4670137,6.50823873 C40.7109964,2.39146933 55.0928054,7.37190715 62.9544243,18.7975719 C70.8160433,30.2232367 70.3279321,45.4351707 61.75,56.3333333 C57.9295431,50.6429547 52.3863533,46.3263927 45.9333333,44.0166667 C48.7221236,41.0315054 50.2506328,37.0848471 50.2,33 C50.2,24.6666667 44.2166667,18 36.8666667,18 C29.5166667,18 23.5333333,24.6666667 23.5333333,33 C23.4918998,37.2306263 25.1489207,41.3011341 28.1333333,44.3 C21.6345184,46.6328623 16.1529805,51.1595517 12.6333333,57.1 C7.82866063,51.4081831 5.19518459,44.1985996 5.2,36.75 L5.2,36.75 Z M37.7,42.5833333 C36.7869387,42.5870841 35.8746554,42.6371484 34.9666667,42.7333333 C30.9105689,41.2624251 28.2969133,37.3080861 28.5333333,33 C28.5333333,27.4833333 32.2666667,23 36.8666667,23 C41.4666667,23 45.2,27.4833333 45.2,33 C45.4053678,37.1868702 42.9471681,41.047847 39.0666667,42.6333333 C38.6166667,42.6166667 38.1666667,42.5833333 37.7,42.5833333 Z M16.3333333,60.9166667 C19.9557979,53.8445613 26.7969882,48.9810969 34.6666667,47.8833333 C36.2891394,48.2001805 37.9611118,48.1603716 39.5666667,47.7666667 C47.3442291,48.816909 54.2112005,53.3744159 58.2,60.1333333 C46.4463877,70.9820438 28.434076,71.3186556 16.2833333,60.9166667 L16.3333333,60.9166667 Z" id="Shape"></path>
                        </g>
                    </g>
                </g>
            </g>
        </g>
    </g>
</svg>
