<svg width="130px" height="148px" viewBox="20 19 128 148" version="1.1" xmlns="http://www.w3.org/2000/svg" xmlns:xlink="http://www.w3.org/1999/xlink">
    <!-- Generator: Sketch 51.2 (57519) - http://www.bohemiancoding.com/sketch -->
    <desc>Created with Sketch.</desc>
    <defs>
        <filter x="-18.5%" y="-12.3%" width="137.7%" height="127.6%" filterUnits="objectBoundingBox" id="filter-1">
            <feOffset dx="0" dy="2" in="SourceAlpha" result="shadowOffsetOuter1"></feOffset>
            <feGaussianBlur stdDeviation="10.5" in="shadowOffsetOuter1" result="shadowBlurOuter1"></feGaussianBlur>
            <feColorMatrix values="0 0 0 0 0.734693361   0 0 0 0 0.729411765   0 0 0 0 0.831372549  0 0 0 0.5 0" type="matrix" in="shadowBlurOuter1" result="shadowMatrixOuter1"></feColorMatrix>
            <feMerge>
                <feMergeNode in="shadowMatrixOuter1"></feMergeNode>
                <feMergeNode in="SourceGraphic"></feMergeNode>
            </feMerge>
        </filter>
        <linearGradient x1="28.9606995%" y1="12.8350509%" x2="42.1444006%" y2="84.847763%" id="linearGradient-2">
            <stop stop-color="#978EDA" offset="0%"></stop>
            <stop stop-color="#77AFD9" offset="100%"></stop>
        </linearGradient>
    </defs>
    <g id="UI" stroke="none" stroke-width="1" fill="none" fill-rule="evenodd">
        <g id="UI-Components" transform="translate(-764.000000, -9082.000000)" fill="url(#linearGradient-2)">
            <g id="Group-3" transform="translate(274.842553, 8447.000000)">
                <g id="Inspection-Tool_btn" filter="url(#filter-1)" transform="translate(423.000000, 593.000000)">
                    <path d="M201.0025,71.405 L187.0835,103.8575 L175.8905,103.8575 L171.4955,94.3335 L174.367,94.3335 C179.6195,94.3335 183.891,90.1075 183.891,84.855 L183.891,75.2855 L188.653,75.2855 L188.653,61 L174.367,61 L174.367,75.2855 L179.129,75.2855 L179.129,84.855 C179.129,87.479 176.9935,89.5715 174.367,89.5715 L169.298,89.5715 L163.212,76.405 L170.5025,72.7715 L146.631,62.5475 L141.019,82.188 C140.8665,70.5025 131.326,61.043 119.6045,61.043 C107.788,61.043 98.176,70.655 98.176,82.4715 C98.176,89.612 101.7925,96.3095 107.7,100.269 L107.7,103.857 L101.9335,103.857 L101.562,105.8095 C100.405,111.812 100.2975,117.981 101.243,124.1335 L85,153.086 L102.938,157.1835 L102.938,187.1905 L126.7475,187.1905 L126.7475,208.619 L183.8905,208.619 L183.8905,175.4405 C200.557,163.65 210.076,144.693 210.062,124.469 L210.067,115.7835 C210.067,112.5095 209.7645,109.1455 209.155,105.831 L208.8025,103.857 L204.1285,103.857 L214.843,78.188 L214.843,61.045 C207.92275,66.225 201.0025,71.405 201.0025,71.405 Z M179.1285,70.569 L179.1285,65.807 L183.8905,65.807 L183.8905,70.569 L179.1285,70.569 L179.1285,70.569 L179.1285,70.569 Z M170.6455,103.857 L161.6145,103.857 L157.286,94.333 L166.2505,94.333 L170.6455,103.857 L170.6455,103.857 L170.6455,103.857 Z M149.7215,69.0595 L159.186,73.1145 L156.9525,74.2095 L164.0525,89.5715 L155.1215,89.5715 L149.319,76.836 L147.188,77.912 L149.7215,69.0595 L149.7215,69.0595 L149.7215,69.0595 Z M156.3835,103.8575 L145.7955,103.8575 L145.7955,99.141 C145.7955,96.515 147.931,94.334 150.5575,94.334 L152.055,94.334 L152.055,94.3335 L156.3835,103.8575 L156.3835,103.8575 L156.3835,103.8575 Z M147.0335,83.326 L149.9215,89.681 C144.969,90.0145 141.0335,94.105 141.0335,99.1405 L141.0335,103.857 L131.5095,103.857 L131.5095,100.269 C136.274,97.076 139.507,92.093 140.5975,86.543 L147.0335,83.326 L147.0335,83.326 L147.0335,83.326 Z M102.9385,82.474 C102.9385,73.286 110.417,65.8075 119.605,65.8075 C128.793,65.8075 136.2715,73.286 136.2715,82.474 C136.2715,88.3885 133.0765,93.9145 127.936,96.893 L126.748,97.5785 L126.748,103.857 L121.986,103.857 L121.986,89.176 C124.7505,88.1905 126.748,85.571 126.748,82.471 C126.748,78.533 123.543,75.328 119.605,75.328 C115.667,75.328 112.462,78.5335 112.462,82.4715 C112.462,85.5715 114.4595,88.1905 117.224,89.1765 L117.224,103.8575 L112.462,103.8575 L112.462,97.5785 L111.274,96.8905 C106.1335,93.912 102.9385,88.388 102.9385,82.474 L102.9385,82.474 L102.9385,82.474 Z M119.605,84.855 C118.2905,84.855 117.224,83.7855 117.224,82.474 C117.224,81.1595 118.2905,80.093 119.605,80.093 C120.9195,80.093 121.986,81.1595 121.986,82.474 C121.986,83.7885 120.9195,84.855 119.605,84.855 L119.605,84.855 L119.605,84.855 Z M204.795,108.6195 C205.1405,111 205.3145,113.4145 205.3145,115.762 L205.3195,124.4645 C205.334,143.5385 195.922,161.4 180.1765,172.2405 L179.129,172.955 L179.129,203.8575 L131.51,203.8575 L131.51,182.429 L107.7,182.429 L107.7,153.386 L92.269,149.8645 L106.207,125.0145 L106.0715,124.1645 C105.186,118.955 105.136,113.381 105.905,108.6195 L107.7,108.6195 L131.5095,108.6195 L204.795,108.6195 L204.795,108.6195 L204.795,108.6195 Z M198.969,103.857 L192.262,103.857 L204.131,76.1855 L209.4095,78.814 L198.969,103.857 L198.969,103.857 L198.969,103.857 Z M210.081,73.857 L207.4475,72.5405 L210.081,70.569 L210.081,73.857 L210.081,73.857 Z M124.367,122.905 C120.429,122.905 117.224,120.524 117.224,115.762 L112.462,115.762 C112.462,122.905 117.8025,127.667 124.367,127.667 C130.9315,127.667 136.272,122.905 136.272,115.762 L131.51,115.762 C131.5095,120.524 128.305,122.905 124.367,122.905 L124.367,122.905 Z" id="idea-1"></path>
                </g>
            </g>
        </g>
    </g>
</svg>
