<svg width="103px" height="103px" viewBox="0 0 103 103" version="1.1" xmlns="http://www.w3.org/2000/svg" xmlns:xlink="http://www.w3.org/1999/xlink">
    <!-- Generator: Sketch 51.2 (57519) - http://www.bohemiancoding.com/sketch -->
    <desc>Created with Sketch.</desc>
    <defs>
        <linearGradient x1="50%" y1="3.12898597%" x2="50%" y2="97.8241862%" id="linearGradient-1">
            <stop stop-color="#ef5761" offset="0%"></stop>
            <stop stop-color="#ef5c85" offset="100%"></stop>
        </linearGradient>
    </defs>
    <g id="UI" stroke="none" stroke-width="1" fill="none" fill-rule="evenodd">
        <g id="UI-Components" transform="translate(-568.000000, -7614.000000)" fill="url(#linearGradient-1)" fill-rule="nonzero">
            <g id="Group-30" transform="translate(104.000000, 7551.000000)">
                <g id="Group-29" transform="translate(0.000000, 63.000000)">
                    <path d="M473.363636,9.36363636 L473.363636,93.6363636 L557.636364,93.6363636 L557.636364,9.36363636 L473.363636,9.36363636 Z M464,0 L567,0 L567,103 L464,103 L464,0 Z M506.136364,58.8132338 L525.948782,82.5881361 C527.604105,84.5745233 530.556294,84.8429042 532.542682,83.1875814 C534.529069,81.5322587 534.79745,78.5800694 533.142127,76.5936821 L506.136364,44.1867662 L479.1306,76.5936821 C477.475278,78.5800694 477.743658,81.5322587 479.730046,83.1875814 C481.716433,84.8429042 484.668622,84.5745233 486.323945,82.5881361 L506.136364,58.8132338 Z M527.976735,61.6125885 C529.5469,63.496786 531.312508,65.6155161 537.5575,73.1095063 L545.538493,82.6866983 C547.193816,84.6730856 550.146005,84.9414664 552.132392,83.2861437 C554.11878,81.6308209 554.387161,78.6786316 552.731838,76.6922444 L529.860065,49.2461169 L516.871273,62.2349092 C515.042909,64.0632729 515.042909,67.0276362 516.871273,68.8559999 C518.699637,70.6843637 521.664,70.6843637 523.492364,68.8559999 L529.230844,63.1175194 L527.976735,61.6125885 Z M534.227273,32.7727273 C536.81297,32.7727273 538.909091,30.6766059 538.909091,28.0909091 C538.909091,25.5052123 536.81297,23.4090909 534.227273,23.4090909 C531.641576,23.4090909 529.545455,25.5052123 529.545455,28.0909091 C529.545455,30.6766059 531.641576,32.7727273 534.227273,32.7727273 Z M534.227273,42.1363636 C526.470182,42.1363636 520.181818,35.8479994 520.181818,28.0909091 C520.181818,20.3338187 526.470182,14.0454545 534.227273,14.0454545 C541.984363,14.0454545 548.272727,20.3338187 548.272727,28.0909091 C548.272727,35.8479994 541.984363,42.1363636 534.227273,42.1363636 Z" id="Combined-Shape"></path>
                </g>
            </g>
        </g>
    </g>
</svg>
