<svg width="73px" height="56px" viewBox="0 0 73 56" version="1.1" xmlns="http://www.w3.org/2000/svg" xmlns:xlink="http://www.w3.org/1999/xlink">
    <!-- Generator: Sketch 51.2 (57519) - http://www.bohemiancoding.com/sketch -->
    <desc>Created with Sketch.</desc>
    <defs></defs>
    <g id="UI" stroke="none" stroke-width="1" fill="none" fill-rule="evenodd">
        <g id="UI-Components" transform="translate(-360.000000, -298.000000)" fill="#f16a7a">
            <g id="Group-16" transform="translate(71.000000, 147.000000)">
                <g id="popup">
                    <g id="Group-15">
                        <g id="icon_invite" transform="translate(289.000000, 151.000000)">
                            <g id="Mail">
                                <path d="M67.4528046,0 L4.93557107,0 C2.20973044,0 0,2.20973044 0,4.93557107 L0,51.000901 C0,53.7267417 2.20973044,55.9364721 4.93557107,55.9364721 L67.4528046,55.9364721 C70.1786452,55.9364721 72.3883757,53.7267417 72.3883757,51.000901 L72.3883757,4.93557107 C72.3883757,2.20973044 70.1786452,0 67.4528046,0 Z M67.4528046,47.5130975 L54.3899932,34.4502861 C53.4176536,33.5442506 51.9024334,33.5709849 50.9626609,34.5107573 C50.0228884,35.4505298 49.9961541,36.96575 50.9021896,37.9380896 L63.965001,51.000901 L8.42337462,51.000901 L21.4861861,37.9380896 C22.3922215,36.96575 22.3654872,35.4505298 21.4257148,34.5107573 C20.4859423,33.5709849 18.9707221,33.5442506 17.9983825,34.4502861 L4.93557107,47.5130975 L4.93557107,15.8431831 L34.5489975,38.1684163 C35.4264323,38.8264924 36.6329053,38.8264924 37.5103401,38.1684163 L67.4199008,15.8267312 L67.4528046,47.5130975 Z M67.4528046,4.93557107 L67.4528046,9.67371929 L36.0790245,33.1176819 L4.93557107,9.67371929 L4.93557107,4.93557107 L67.4528046,4.93557107 Z" id="Shape"></path>
                            </g>
                        </g>
                    </g>
                </g>
            </g>
        </g>
    </g>
</svg>
