<svg width="148px" height="148px" viewBox="0 0 148 148" version="1.1" xmlns="http://www.w3.org/2000/svg" xmlns:xlink="http://www.w3.org/1999/xlink">
    <!-- Generator: Sketch 51.2 (57519) - http://www.bohemiancoding.com/sketch -->
    <desc>Created with Sketch.</desc>
    <defs>
        <linearGradient x1="50%" y1="3.12898597%" x2="50%" y2="97.8241862%" id="linearGradient-1">
            <stop stop-color="#62C4CC" offset="0%"></stop>
            <stop stop-color="#23A0D0" offset="100%"></stop>
        </linearGradient>
    </defs>
    <g id="UI" stroke="none" stroke-width="1" fill="none" fill-rule="evenodd">
        <g id="UI-Components" transform="translate(-595.000000, -8563.000000)" fill="url(#linearGradient-1)">
            <g id="Group-3" transform="translate(96.000000, 8447.000000)">
                <g id="Annotation-Tool_btn-hover" transform="translate(423.000000, 55.000000)">
                    <path d="M211.7145,103.857 L183.143,103.857 L183.143,89.5715 C183.143,85.6335 179.938,82.4285 176,82.4285 C172.062,82.4285 168.857,85.6335 168.857,89.5715 L168.857,103.857 L97.4285,103.857 C90.864,103.857 85.5235,109.1975 85.5235,115.762 L85.5235,153.857 L83.1425,153.857 C81.8305,153.857 80.7615,152.788 80.7615,151.476 L80.7615,89.5715 C80.7615,88.2595 81.8305,87.1905 83.1425,87.1905 L149.809,87.1905 C153.747,87.1905 156.952,83.9855 156.952,80.0475 L156.952,61 L152.19,61 L152.19,80.0475 C152.19,81.3595 151.121,82.4285 149.809,82.4285 L83.143,82.4285 C79.205,82.4285 76,85.6335 76,89.5715 L76,151.4765 C76,155.4145 79.205,158.6195 83.143,158.6195 L85.524,158.6195 L85.524,196.7145 C85.524,203.279 90.8645,208.6195 97.429,208.6195 L211.7145,208.6195 C218.279,208.6195 223.6195,203.279 223.6195,196.7145 L223.6195,115.762 C223.619,109.1975 218.2785,103.857 211.7145,103.857 L211.7145,103.857 L211.7145,103.857 Z M173.619,89.5715 C173.619,88.2595 174.688,87.1905 176,87.1905 C177.312,87.1905 178.381,88.2595 178.381,89.5715 L178.381,130.0475 L173.619,130.0475 L173.619,89.5715 L173.619,89.5715 L173.619,89.5715 Z M173.619,134.8095 L178.381,134.8095 L178.381,163.381 L173.619,163.381 L173.619,134.8095 L173.619,134.8095 L173.619,134.8095 Z M178.381,168.143 L178.381,169.8025 L176,173.374 L173.619,169.8025 L173.619,168.143 L178.381,168.143 L178.381,168.143 L178.381,168.143 Z M173.619,178.388 L173.619,184.8095 L178.381,184.8095 L178.381,178.388 L183.143,171.245 L183.143,120.524 L206.9525,120.524 L206.9525,191.9525 L118.857,191.9525 L118.857,120.524 L168.857,120.524 L168.857,171.245 L173.619,178.388 L173.619,178.388 L173.619,178.388 Z M97.4285,108.619 L168.857,108.619 L168.857,115.762 L90.2855,115.762 C90.2855,111.824 93.4905,108.619 97.4285,108.619 L97.4285,108.619 L97.4285,108.619 Z M90.2855,156.2385 L90.2855,156.2385 L90.2855,120.524 L114.095,120.524 L114.095,156.219 C114.0845,149.6635 108.7485,144.333 102.1905,144.333 C95.626,144.333 90.2855,149.6735 90.2855,156.2385 C90.2855,162.8025 95.626,168.143 102.1905,168.143 C108.7485,168.143 114.0845,162.813 114.095,156.257 L114.095,191.953 L90.2855,191.953 L90.2855,156.2385 L90.2855,156.2385 L90.2855,156.2385 Z M109.3335,156.238 C109.3335,160.176 106.1285,163.381 102.1905,163.381 C98.2525,163.381 95.0475,160.176 95.0475,156.238 C95.0475,152.3 98.2525,149.095 102.1905,149.095 C106.1285,149.095 109.3335,152.3 109.3335,156.238 L109.3335,156.238 L109.3335,156.238 Z M218.857,196.7145 C218.857,200.6525 215.652,203.8575 211.714,203.8575 L97.4285,203.8575 C93.4905,203.8575 90.2855,200.6525 90.2855,196.7145 L211.714,196.7145 L211.714,115.762 L183.1425,115.762 L183.1425,108.619 L211.714,108.619 C215.652,108.619 218.857,111.824 218.857,115.762 L218.857,196.7145 L218.857,196.7145 Z M102.1905,158.619 C103.50549,158.619 104.5715,157.55299 104.5715,156.238 C104.5715,154.92301 103.50549,153.857 102.1905,153.857 C100.87551,153.857 99.8095,154.92301 99.8095,156.238 C99.8095,157.55299 100.87551,158.619 102.1905,158.619 L102.1905,158.619 Z M95.0475,134.8095 L109.333,134.8095 L109.333,139.5715 L95.0475,139.5715 L95.0475,134.8095 L95.0475,134.8095 Z M95.0475,125.2855 L109.333,125.2855 L109.333,130.0475 L95.0475,130.0475 L95.0475,125.2855 L95.0475,125.2855 Z M95.0475,182.4285 L109.333,182.4285 L109.333,187.1905 L95.0475,187.1905 L95.0475,182.4285 L95.0475,182.4285 Z M95.0475,172.905 L109.333,172.905 L109.333,177.667 L95.0475,177.667 L95.0475,172.905 L95.0475,172.905 Z" id="tablet"></path>
                </g>
            </g>
        </g>
    </g>
</svg>
