<?xml version="1.0" encoding="UTF-8"?>
<svg width="24px" height="24px" viewBox="0 0 24 24" version="1.1" xmlns="http://www.w3.org/2000/svg" xmlns:xlink="http://www.w3.org/1999/xlink">
    <!-- Generator: Sketch 51.2 (57519) - http://www.bohemiancoding.com/sketch -->
    <title>icon-download</title>
    <desc>Created with Sketch.</desc>
    <defs></defs>
    <g id="icon-download" stroke="none" stroke-width="1" fill="none" fill-rule="evenodd">
        <path d="M14.3784632,18.642251 L14.3784632,5.16231065 C14.3784632,4.66971478 13.9791354,4.27038694 13.4865395,4.27038694 C12.9939437,4.27038694 12.5946158,4.66971478 12.5946158,5.16231065 L12.5946158,20.2536598 L12,20.8482756 L11.4053842,20.2536598 L11.4053842,5.16231065 C11.4053842,4.66971478 11.0060563,4.27038694 10.5134605,4.27038694 C10.0208646,4.27038694 9.62153677,4.66971478 9.62153677,5.16231065 L9.62153677,18.529274 L7.29658897,16.0675645 C6.95593586,15.7219628 6.40148837,15.7121189 6.04878185,16.0454104 C5.69607534,16.3787018 5.67454481,16.9328186 6.00032651,17.2924731 L9.86532925,21.3834299 C9.97035026,21.4918914 10.1013455,21.5717166 10.2458834,21.61533 L11.3697072,22.7391539 C11.7179351,23.0869487 12.2820649,23.0869487 12.6302928,22.7391539 L13.7600628,21.6093839 C13.8912158,21.5703819 14.0113807,21.5011343 14.1108861,21.4072145 L17.9758889,17.6195118 C18.2161144,17.3992974 18.3171138,17.0655968 18.2393228,16.74913 C18.1615317,16.4326632 17.9173354,16.1838156 17.6023925,16.1000678 C17.2874497,16.01632 16.951903,16.1110058 16.7271957,16.347034 L14.3784632,18.642251 Z" id="Shape" fill="#B1BDC8"></path>
        <path d="M19.1353897,1 L4.86461032,1 C4.37201445,1 3.97268661,1.39932785 3.97268661,1.89192371 C3.97268661,2.38451957 4.37201445,2.78384742 4.86461032,2.78384742 L19.1353897,2.78384742 C19.6279855,2.78384742 20.0273134,2.38451957 20.0273134,1.89192371 C20.0273134,1.39932785 19.6279855,1 19.1353897,1 Z" id="Shape" fill="#B1BDC8"></path>
    </g>
</svg>