<?xml version="1.0" encoding="UTF-8"?>
<svg width="24px" height="24px" viewBox="0 0 24 24" version="1.1" xmlns="http://www.w3.org/2000/svg" xmlns:xlink="http://www.w3.org/1999/xlink">
    <!-- Generator: Sketch 51.3 (57544) - http://www.bohemiancoding.com/sketch -->
    <title>icon-hide</title>
    <desc>Created with Sketch.</desc>
    <defs></defs>
    <g id="icon-hide" stroke="none" stroke-width="1" fill="none" fill-rule="evenodd">
        <path d="M12.0799832,19 C9.59604292,19 7.09756405,17.9295006 4.68064279,16.1633156 C3.8512982,15.5572652 3.08999859,14.9095394 2.41137575,14.2611384 C2.00100329,13.8690414 1.70593909,13.5599629 1.57954249,13.4149776 C0.811649858,12.6384389 0.814701289,11.3763639 1.54200084,10.625133 C1.70593909,10.4400371 2.00100329,10.1309586 2.41137575,9.73886165 C3.08999859,9.09046058 3.8512982,8.44273482 4.68064279,7.83668444 C7.09756405,6.07049939 9.59604292,5 12.0799832,5 C14.5639235,5 17.0624024,6.07049939 19.4793236,7.83668444 C20.3086682,8.44273482 21.0699678,9.09046058 21.7485907,9.73886165 C22.1589631,10.1309586 22.4540273,10.4400371 22.5804239,10.5850224 C23.3483166,11.3615611 23.3452651,12.6236361 22.6179656,13.374867 C22.4540273,13.5599629 22.1589631,13.8690414 21.7485907,14.2611384 C21.0699678,14.9095394 20.3086682,15.5572652 19.4793236,16.1633156 C17.0624024,17.9295006 14.5639235,19 12.0799832,19 Z M12.0799832,17 C14.0635278,17 16.193387,16.0874395 18.299302,14.5485248 C19.0529501,13.9977903 19.7483846,13.4061037 20.3669428,12.8150923 C20.7348789,12.4635418 20.9919815,12.1942279 21.1502842,12.0169188 C21.1567805,12.0101967 21.1568298,11.9897943 21.1207739,11.9511862 C20.9919815,11.8057721 20.7348789,11.5364582 20.3669428,11.1849077 C19.7483846,10.5938963 19.0529501,10.0022097 18.299302,9.45147516 C16.193387,7.91256046 14.0635278,7 12.0799832,7 C10.0964387,7 7.9665794,7.91256046 5.86066437,9.45147516 C5.10701627,10.0022097 4.41158182,10.5938963 3.79302362,11.1849077 C3.42508747,11.5364582 3.16798487,11.8057721 3.00968222,11.9830812 C3.00318596,11.9898033 3.00313663,12.0102057 3.03919251,12.0488138 C3.16798487,12.1942279 3.42508747,12.4635418 3.79302362,12.8150923 C4.41158182,13.4061037 5.10701627,13.9977903 5.86066437,14.5485248 C7.9665794,16.0874395 10.0964387,17 12.0799832,17 Z M12.0799832,13 C12.632268,13 13.0799832,12.5522847 13.0799832,12 C13.0799832,11.4477153 12.632268,11 12.0799832,11 C11.5276985,11 11.0799832,11.4477153 11.0799832,12 C11.0799832,12.5522847 11.5276985,13 12.0799832,13 Z M12.0799832,15 C10.423129,15 9.0799832,13.6568542 9.0799832,12 C9.0799832,10.3431458 10.423129,9 12.0799832,9 C13.7368375,9 15.0799832,10.3431458 15.0799832,12 C15.0799832,13.6568542 13.7368375,15 12.0799832,15 Z" id="Combined-Shape" fill="#32485C" fill-rule="nonzero"></path>
        <path d="M2,4 L22.2083666,20.3591539" id="Line-3" stroke="#32485C" stroke-width="2" stroke-linecap="square"></path>
    </g>
</svg>