<?xml version="1.0" encoding="UTF-8"?>
<svg width="24px" height="24px" viewBox="0 0 24 24" version="1.1" xmlns="http://www.w3.org/2000/svg" xmlns:xlink="http://www.w3.org/1999/xlink">
    <!-- Generator: Sketch 51.2 (57519) - http://www.bohemiancoding.com/sketch -->
    <title>icon-grid</title>
    <desc>Created with Sketch.</desc>
    <defs></defs>
    <g id="icon-grid" stroke="none" stroke-width="1" fill="none" fill-rule="evenodd">
        <path d="M8.8974359,1 L2.69230769,1 C1.75767196,1 1,1.75767196 1,2.69230769 L1,8.8974359 C1,9.83207163 1.75767196,10.5897436 2.69230769,10.5897436 L8.8974359,10.5897436 C9.83207163,10.5897436 10.5897436,9.83207163 10.5897436,8.8974359 L10.5897436,2.69230769 C10.5897436,1.75767196 9.83207163,1 8.8974359,1 Z M8.8974359,8.8974359 L2.69230769,8.8974359 L2.69230769,2.69230769 L8.8974359,2.69230769 L8.8974359,8.8974359 Z" id="Shape" fill="#B1BDC8"></path>
        <path d="M21.3076923,1 L15.1025641,1 C14.1679284,1 13.4102564,1.75767196 13.4102564,2.69230769 L13.4102564,8.8974359 C13.4102564,9.83207163 14.1679284,10.5897436 15.1025641,10.5897436 L21.3076923,10.5897436 C22.242328,10.5897436 23,9.83207163 23,8.8974359 L23,2.69230769 C23,1.75767196 22.242328,1 21.3076923,1 Z M21.3076923,8.8974359 L15.1025641,8.8974359 L15.1025641,2.69230769 L21.3076923,2.69230769 L21.3076923,8.8974359 Z" id="Shape" fill="#B1BDC8"></path>
        <path d="M8.8974359,13.4102564 L2.69230769,13.4102564 C1.75767196,13.4102564 1,14.1679284 1,15.1025641 L1,21.3076923 C1,22.242328 1.75767196,23 2.69230769,23 L8.8974359,23 C9.83207163,23 10.5897436,22.242328 10.5897436,21.3076923 L10.5897436,15.1025641 C10.5897436,14.1679284 9.83207163,13.4102564 8.8974359,13.4102564 Z M8.8974359,21.3076923 L2.69230769,21.3076923 L2.69230769,15.1025641 L8.8974359,15.1025641 L8.8974359,21.3076923 Z" id="Shape" fill="#B1BDC8"></path>
        <path d="M21.3076923,13.4102564 L15.1025641,13.4102564 C14.1679284,13.4102564 13.4102564,14.1679284 13.4102564,15.1025641 L13.4102564,21.3076923 C13.4102564,22.242328 14.1679284,23 15.1025641,23 L21.3076923,23 C22.242328,23 23,22.242328 23,21.3076923 L23,15.1025641 C23,14.1679284 22.242328,13.4102564 21.3076923,13.4102564 Z M21.3076923,21.3076923 L15.1025641,21.3076923 L15.1025641,15.1025641 L21.3076923,15.1025641 L21.3076923,21.3076923 Z" id="Shape" fill="#B1BDC8"></path>
    </g>
</svg>