<?xml version="1.0" encoding="UTF-8"?>
<svg width="24px" height="24px" viewBox="0 0 24 24" version="1.1" xmlns="http://www.w3.org/2000/svg" xmlns:xlink="http://www.w3.org/1999/xlink">
    <!-- Generator: Sketch 51.3 (57544) - http://www.bohemiancoding.com/sketch -->
    <title>icon-lock</title>
    <desc>Created with Sketch.</desc>
    <defs></defs>
    <g id="icon-lock" stroke="none" stroke-width="1" fill="none" fill-rule="evenodd">
        <path d="M3.98,10.8949373 L3.98,10.8949373 L3.98,19.7050627 C3.98,20.2987692 4.42362445,20.8 4.97086294,20.8 L18.8291371,20.8 C19.3798154,20.8 19.82,20.3097799 19.82,19.7050627 L19.82,10.8949373 C19.82,10.3012308 19.3763756,9.8 18.8291371,9.8 L4.97086294,9.8 C4.42018455,9.8 3.98,10.2902201 3.98,10.8949373 L3.98,10.8949373 Z M5.3,7.6 C5.3,3.95492065 8.25492065,1 11.9,1 C15.5450793,1 18.5,3.95492065 18.5,7.6 L18.8291371,7.6 C20.4671195,7.6 21.8,9.08310912 21.8,10.8949373 L21.8,19.7050627 C21.8,21.5276434 20.4707868,23 18.8291371,23 L4.97086294,23 C3.33288045,23 2,21.5168909 2,19.7050627 L2,10.8949373 C2,9.07235656 3.32921316,7.6 4.97086294,7.6 L5.3,7.6 Z M7.5,7.6 L16.3,7.6 C16.3,5.1699471 14.3300529,3.2 11.9,3.2 C9.4699471,3.2 7.5,5.1699471 7.5,7.6 Z M11.9,17.5 C12.5075132,17.5 13,16.5150264 13,15.3 C13,14.0849736 12.5075132,13.1 11.9,13.1 C11.2924868,13.1 10.8,14.0849736 10.8,15.3 C10.8,16.5150264 11.2924868,17.5 11.9,17.5 Z" id="Rectangle-86" fill="#23A0D0" fill-rule="nonzero"></path>
    </g>
</svg>