<?xml version="1.0" encoding="UTF-8"?>
<svg width="24px" height="24px" viewBox="0 0 24 24" version="1.1" xmlns="http://www.w3.org/2000/svg" xmlns:xlink="http://www.w3.org/1999/xlink">
    <!-- Generator: Sketch 51.2 (57519) - http://www.bohemiancoding.com/sketch -->
    <title>icon-redo</title>
    <desc>Created with Sketch.</desc>
    <defs></defs>
    <g id="icon-redo" stroke="none" stroke-width="1" fill="none" fill-rule="evenodd">
        <path d="M16.6931252,4.36874958 L21.2197288,9.08303418 L16.6931252,13.2080332 L16.6931252,10.8508909 L13.0718424,10.8508909 C3.41508806,10.8508909 2.81154092,19.6901745 2.81154092,19.6901745 C2.81154092,19.6901745 3.0469243,12.3889263 5.22572949,10.2616053 C7.63991807,7.90446303 13.0718424,7.31517745 13.0718424,7.31517745 L16.6931252,7.31517745 L16.6931252,4.36874958 L16.6931252,4.36874958 Z M14.8824838,4.36874958 L14.8824838,5.54732073 L13.0718424,5.54732073 L12.8726718,5.54732073 C12.2691247,5.61214214 6.72856188,6.28392769 3.94620955,9.0005342 C1.39320513,11.4932122 1.04918326,18.2876749 1.00089949,19.6076745 C0.970076651,20.5709538 1.73514608,21.3808495 2.72100885,21.428567 L2.81154092,21.428567 C3.76622658,21.4306405 4.55853884,20.708623 4.62218235,19.7785674 C4.78300615,18.4577263 5.231641,17.1858209 5.93791512,16.0483897 C7.39849921,13.7501759 9.79458137,12.5892833 13.0718424,12.5892833 L14.8824838,12.5892833 L14.8824838,13.1785689 C14.8932986,13.8708104 15.3169725,14.4931813 15.9664795,14.7709431 C16.6159864,15.0487049 17.3717784,14.9307328 17.9002195,14.4691043 L22.4268231,10.3441053 C23.1567389,9.67689182 23.1945672,8.55830642 22.5113197,7.84553447 L17.9847161,3.13124987 C17.6424108,2.77415638 17.1638825,2.57148068 16.6629479,2.57142857 C15.6931356,2.60089285 14.8824838,3.39238927 14.8824838,4.36874958 Z" id="Shape" fill="#32485C"></path>
    </g>
</svg>