<?xml version="1.0" encoding="UTF-8"?>
<svg width="24px" height="24px" viewBox="0 0 24 24" version="1.1" xmlns="http://www.w3.org/2000/svg" xmlns:xlink="http://www.w3.org/1999/xlink">
    <!-- Generator: Sketch 51.2 (57519) - http://www.bohemiancoding.com/sketch -->
    <title>icon-fit</title>
    <desc>Created with Sketch.</desc>
    <defs></defs>
    <g id="icon-fit" stroke="none" stroke-width="1" fill="none" fill-rule="evenodd">
        <g id="Full_screen" transform="translate(1.000000, 1.000000)" fill="#32485C">
            <path d="M21.74,0.933333333 L21.74,0.933333333 C21.6384331,0.685193095 21.4414736,0.488233544 21.1933333,0.386666667 L21.1933333,0.386666667 C21.0760729,0.321408939 20.9468054,0.280587638 20.8133333,0.266666667 L16.8133333,0.266666667 C16.2610486,0.266666667 15.8133333,0.714381917 15.8133333,1.26666667 C15.8133333,1.81895142 16.2610486,2.26666667 16.8133333,2.26666667 L18.4,2.26666667 L14.1066667,6.56 C13.8391291,6.80929411 13.7290011,7.18474072 13.8194859,7.53905188 C13.9099708,7.89336303 14.186637,8.1700292 14.5409481,8.26051406 C14.8952593,8.35099891 15.2707059,8.2408709 15.52,7.97333333 L19.8133333,3.68 L19.8133333,5.26666667 C19.8133333,5.81895142 20.2610486,6.26666667 20.8133333,6.26666667 C21.3656181,6.26666667 21.8133333,5.81895142 21.8133333,5.26666667 L21.8133333,1.26666667 C21.8083036,1.15215678 21.783493,1.03938132 21.74,0.933333333 Z" id="Shape"></path>
            <path d="M7.10666667,13.56 L2.48,18.1866667 L2.48,16.6 C2.48,16.0477153 2.03228475,15.6 1.48,15.6 C0.92771525,15.6 0.48,16.0477153 0.48,16.6 L0.48,20.6 C0.48,21.1522847 0.92771525,21.6 1.48,21.6 L5.48,21.6 C6.03228475,21.6 6.48,21.1522847 6.48,20.6 C6.48,20.0477153 6.03228475,19.6 5.48,19.6 L3.89333333,19.6 L8.52,14.9733333 C8.88714515,14.5793203 8.87631183,13.9653204 8.49549573,13.5845043 C8.11467963,13.2036882 7.50067967,13.1928549 7.10666667,13.56 L7.10666667,13.56 Z" id="Shape"></path>
            <path d="M20.8133333,15.6 C20.2610486,15.6 19.8133333,16.0477153 19.8133333,16.6 L19.8133333,17.8533333 L15.52,13.56 C15.125987,13.1928549 14.511987,13.2036882 14.1311709,13.5845043 C13.7503548,13.9653204 13.7395215,14.5793203 14.1066667,14.9733333 L18.7333333,19.6 L16.8133333,19.6 C16.2610486,19.6 15.8133333,20.0477153 15.8133333,20.6 C15.8133333,21.1522847 16.2610486,21.6 16.8133333,21.6 L20.8133333,21.6 C21.3656181,21.6 21.8133333,21.1522847 21.8133333,20.6 L21.8133333,16.6 C21.8133333,16.0477153 21.3656181,15.6 20.8133333,15.6 Z" id="Shape"></path>
            <path d="M4.22666667,2.26666667 L5.48,2.26666667 C6.03228475,2.26666667 6.48,1.81895142 6.48,1.26666667 C6.48,0.714381917 6.03228475,0.266666667 5.48,0.266666667 L1.48,0.266666667 C0.92771525,0.266666667 0.48,0.714381917 0.48,1.26666667 L0.48,5.26666667 C0.48,5.81895142 0.92771525,6.26666667 1.48,6.26666667 C2.03228475,6.26666667 2.48,5.81895142 2.48,5.26666667 L2.48,3.34666667 L7.10666667,7.97333333 C7.50067967,8.34047848 8.11467963,8.32964517 8.49549573,7.94882907 C8.87631183,7.56801296 8.88714515,6.95401301 8.52,6.56 L4.22666667,2.26666667 Z" id="Shape"></path>
        </g>
    </g>
</svg>