<?xml version="1.0" encoding="UTF-8"?>
<svg width="24px" height="24px" viewBox="0 0 24 24" version="1.1" xmlns="http://www.w3.org/2000/svg" xmlns:xlink="http://www.w3.org/1999/xlink">
    <!-- Generator: Sketch 51.2 (57519) - http://www.bohemiancoding.com/sketch -->
    <title>icon-bell</title>
    <desc>Created with Sketch.</desc>
    <defs></defs>
    <g id="icon-bell" stroke="none" stroke-width="1" fill="none" fill-rule="evenodd">
        <path d="M20.8854855,17.9736517 C20.6808634,17.784002 19.0189327,16.0821451 19.0189327,10.712063 C18.9799063,8.87622707 18.3022134,7.11140184 17.1024722,5.72128037 C16.4585772,4.95155286 15.6614252,4.32436929 14.7617952,3.87968158 C14.7658459,3.83485586 14.7658459,3.78975616 14.7617952,3.74493045 C14.7617952,2.22894722 13.5328479,1 12.0168647,1 C10.5008815,1 9.27193428,2.22894722 9.27193428,3.74493045 C9.26788352,3.78975616 9.26788352,3.83485586 9.27193428,3.87968158 C8.37230429,4.32436929 7.57515227,4.95155286 6.93125722,5.72128037 C5.73151604,7.11140184 5.05382315,8.87622707 5.01479669,10.712063 C5.01479669,16.0721635 3.35785686,17.7690296 3.15323477,17.9586794 C2.59174087,18.2945728 2.33052087,18.9692198 2.51940538,19.5956561 C2.71868876,20.2518945 3.33100026,20.6947998 4.01664017,20.6786559 L8.89762558,20.6786559 C8.62257457,20.9661674 8.62257457,21.4192456 8.89762558,21.7067571 C9.70276118,22.5336094 10.8078742,23 11.9619661,23 C13.116058,23 14.221171,22.5336094 15.0263066,21.7067571 C15.2827787,21.4234628 15.2827787,20.9918949 15.0263066,20.7086006 L19.9721722,20.7086006 C20.6578121,20.7247445 21.2701236,20.2818392 21.469407,19.6256008 C21.6735193,19.00623 21.4334887,18.3271689 20.8854855,17.9736517 L20.8854855,17.9736517 Z M12.0318371,2.47727166 C12.5543074,2.52182792 13.0065955,2.85814471 13.1996802,3.34566784 C12.4293775,3.18528785 11.6342967,3.18528785 10.8639939,3.34566784 C11.0570786,2.85814471 11.5093667,2.52182792 12.0318371,2.47727166 L12.0318371,2.47727166 Z M12.0318371,4.72312384 C15.1959933,4.72312384 17.521698,7.91722472 17.521698,10.712063 C17.4936394,12.3942166 17.6900104,14.0726011 18.1056195,15.7028456 L5.95805461,15.7028456 C6.3736637,14.0726011 6.5700347,12.3942166 6.54197618,10.712063 C6.54197618,7.91722472 8.86768088,4.72312384 12.0318371,4.72312384 Z M11.9969016,21.5121166 C11.2472381,21.5201585 10.5265602,21.2228789 10.0005885,20.6886375 L13.9433068,20.6886375 C13.4297813,21.2109761 12.7293788,21.5073002 11.9969016,21.5121166 L11.9969016,21.5121166 Z M4.04658486,19.1963935 C4.67084832,18.6593589 5.14828927,17.9723935 5.43402243,17.2000804 L18.6346425,17.2000804 C18.9203757,17.9723935 19.3978166,18.6593589 20.0220801,19.1963935 L4.04658486,19.1963935 Z" id="Shape" fill="#B1BDC8"></path>
    </g>
</svg>