<?xml version="1.0" encoding="UTF-8"?>
<svg width="24px" height="24px" viewBox="0 0 24 24" version="1.1" xmlns="http://www.w3.org/2000/svg" xmlns:xlink="http://www.w3.org/1999/xlink">
    <!-- Generator: Sketch 51.3 (57544) - http://www.bohemiancoding.com/sketch -->
    <title>icon-folder</title>
    <desc>Created with Sketch.</desc>
    <defs></defs>
    <g id="icon-folder" stroke="none" stroke-width="1" fill="none" fill-rule="evenodd">
        <path d="M3,8.00247329 L3,17.9975267 C3,18.544239 3.44475929,19 3.99339768,19 L20.0066023,19 C20.5550537,19 21,18.553384 21,18.0024554 L21,10.9975446 C21,10.4463114 20.5538732,10 20.0035479,10 L14.7113703,10 L12.0491388,7 L4.00299111,7 C3.4487482,7 3,7.44882258 3,8.00247329 Z M20.0035479,8 C21.6589442,8 23,9.3422431 23,10.9975446 L23,18.0024554 C23,19.6560858 21.6614987,21 20.0066023,21 L3.99339768,21 C2.3362989,21 1,19.6450458 1,17.9975267 L1,8.00247329 C1,6.34401056 2.34442121,5 4.00299111,5 L12.9482643,5 L15.6104958,8 L20.0035479,8 Z M6.63636364,4.43950955 C6.63636364,4.43950955 6.63636364,4.55478769 6.63636364,5.11242676 C6.63636364,5.49377086 7.73663079,6.12386047 9,6 C10.1656025,5.88572456 12.6799892,5.88765325 13.1950467,6.57861449 C15,9 21.3636364,9.73629256 21.3636364,9 L21.3636364,6.87300503 C21.3636364,6.42512801 20.9986235,6.0625 20.5483574,6.0625 L16.2183939,6.0625 L14.0402045,3.625 L7.45699273,3.625 C7.00352126,3.625 6.63636364,3.98966835 6.63636364,4.43950955 Z M20.5483574,4.4375 C21.9027725,4.4375 23,5.52807252 23,6.87300503 L23,11 C23,11.456905 22,9 15,9 C12.9803957,8.24228213 14.1024897,7.45333243 12,6.87300503 C9.74158767,6.24963999 7.05667685,6.94762196 5.79382732,6.92514887 C4.97971519,6.9106613 5,6.2850984 5,6 L5,4.43950955 C5,3.09200858 6.09998099,2 7.45699273,2 L14.7758526,2 L16.954042,4.4375 L20.5483574,4.4375 Z" id="Rectangle-73" fill="#B1BDC8" fill-rule="nonzero"></path>
    </g>
</svg>