<?xml version="1.0" encoding="UTF-8"?>
<svg width="24px" height="24px" viewBox="0 0 24 24" version="1.1" xmlns="http://www.w3.org/2000/svg" xmlns:xlink="http://www.w3.org/1999/xlink">
    <!-- Generator: Sketch 51.3 (57544) - http://www.bohemiancoding.com/sketch -->
    <title>icon-hand</title>
    <desc>Created with Sketch.</desc>
    <defs></defs>
    <g id="icon-hand" stroke="none" stroke-width="1" fill="none" fill-rule="evenodd">
        <path d="M23,10.0035282 C23,8.52178866 21.7988127,7.32060141 20.3170732,7.32060141 L16.5609756,7.32060141 L18.4798933,6.39575623 C19.667167,4.96643792 19.6509184,1.48398031 16.5609756,2.31180758 C13.4710328,3.13963485 16.3366997,2.45093201 12,3.69466772 L10.5229335,4.96643792 L9.23121951,6.78938189 C9.23121951,6.78938189 8.67741115,7.28994974 8.583004,7.32060141 C7.85106968,7.55824242 6.77902439,7.78743067 6.77902439,7.78743067 C5.93307784,7.78743067 5.94450044,7.7885086 5.29268293,7.78743067 L2.13049829,7.78743067 C1.24145454,7.78743067 1,7.78743067 1,8.39913799 L1,20.204016 C3.04805021,20.204016 4.20590796,20.204016 4.20590796,20.204016 C5.09495171,20.204016 5.53752239,20.204016 7.14727849,20.204016 L6.90243902,19.9947477 L9.23121951,21.5454795 C9.49525619,21.7206217 9.8051072,21.8139503 10.1219512,21.8137721 L20.3170732,21.8137721 C21.7988127,21.8137721 23,20.6125849 23,19.1308453 L23,18.5942599 C22.7124448,18.0961997 22.7124448,17.4825641 23,16.9845038 L23,15.3747477 C22.7124448,14.8766875 22.7124448,14.2630519 23,13.7649917 L23,12.1552356 C22.7124448,11.6571753 22.7124448,11.0435397 23,10.5454795 L23,10.0035282 Z M5.29268293,18.7439008 L2.6097561,18.7439008 L2.6097561,9.50683426 L5.29268293,9.50683426 L5.29268293,18.7439008 Z M21.3902439,10.5401136 L20.5853659,10.5401136 C20.140844,10.5401136 14.9512195,10.2389655 14.9512195,11.1944176 C14.9512195,12.1498697 20.140844,12.1498697 20.5853659,12.1498697 L21.3902439,12.1498697 L21.3902439,13.7596258 L20.5853659,13.7596258 C20.140844,13.7596258 14.9512195,13.4584777 14.9512195,14.4139298 C14.9512195,15.3693819 20.140844,15.3693819 20.5853659,15.3693819 L21.3902439,15.3693819 L21.3902439,16.979138 L20.5853659,16.979138 C20.140844,16.979138 14.9512195,16.568341 14.9512195,17.633442 C14.9512195,18.698543 20.140844,18.5888941 20.5853659,18.5888941 L21.3902439,18.5888941 L21.3902439,19.1254795 C21.3902439,19.7181753 20.909769,20.1986502 20.3170732,20.1986502 L10.1219512,20.1986502 L6.90243902,18.0523087 L6.90243902,9.43474775 L9.86101467,8.07653938 L11.5352358,6.08258931 L13.5710471,4.67582721 C14.1463415,4.29274079 17.2846999,3.47814476 17.2439701,3.44533464 C17.2032403,3.41252452 19.3300148,5.33700766 14.9512195,6.81435617 L14.9512195,8.9303575 L20.3170732,8.9303575 C20.909769,8.9303575 21.3902439,9.41083241 21.3902439,10.0035282 L21.3902439,10.5401136 Z" id="Shape" fill="#32485C" transform="translate(12.000000, 12.000000) rotate(-90.000000) translate(-12.000000, -12.000000) "></path>
    </g>
</svg>