<?xml version="1.0" encoding="UTF-8"?>
<svg width="24px" height="24px" viewBox="0 0 24 24" version="1.1" xmlns="http://www.w3.org/2000/svg" xmlns:xlink="http://www.w3.org/1999/xlink">
    <!-- Generator: Sketch 51.3 (57544) - http://www.bohemiancoding.com/sketch -->
    <title>icon-zoom-out</title>
    <desc>Created with Sketch.</desc>
    <defs>
        <linearGradient x1="28.9606995%" y1="12.8350509%" x2="42.1444006%" y2="84.847763%" id="linearGradient-1">
            <stop stop-color="#978EDA" offset="0%"></stop>
            <stop stop-color="#77AFD9" offset="100%"></stop>
        </linearGradient>
    </defs>
    <g id="icon-zoom-out" stroke="none" stroke-width="1" fill="none" fill-rule="evenodd">
        <path d="M12,1 C5.92486775,1 1,5.92486775 1,12 C1,18.0751322 5.92486775,23 12,23 C18.0751322,23 23,18.0751322 23,12 C23,5.92486775 18.0751322,1 12,1 L12,1 Z M12,21.5 C6.75329488,21.5 2.5,17.2467051 2.5,12 C2.5,6.75329488 6.75329488,2.5 12,2.5 C17.2467051,2.5 21.5,6.75329488 21.5,12 C21.5,14.5195567 20.49911,16.9359188 18.7175144,18.7175144 C16.9359188,20.49911 14.5195567,21.5 12,21.5 Z" id="Shape" fill="url(#linearGradient-1)"></path>
        <rect id="Rectangle-5" fill="url(#linearGradient-1)" x="7.5" y="11.25" width="9" height="1.5" rx="0.75"></rect>
    </g>
</svg>