<?xml version="1.0" encoding="UTF-8"?>
<svg width="24px" height="24px" viewBox="0 0 24 24" version="1.1" xmlns="http://www.w3.org/2000/svg" xmlns:xlink="http://www.w3.org/1999/xlink">
    <!-- Generator: Sketch 51.3 (57544) - http://www.bohemiancoding.com/sketch -->
    <title>icon-path</title>
    <desc>Created with Sketch.</desc>
    <defs></defs>
    <g id="icon-path" stroke="none" stroke-width="1" fill="none" fill-rule="evenodd" stroke-linecap="round" stroke-linejoin="round">
        <g id="43--Pen--(Outline)" transform="translate(2.000000, 2.000000)" stroke="#32485C" stroke-width="1.81818182">
            <path d="M3.85690909,12.2860909 C3.146,12.997 1.996,12.997 1.286,12.2860909 L0.642363636,19.357 L7.71418182,18.7142727 C7.00327273,18.0033636 7.00327273,16.8533636 7.71418182,16.1433636 L3.85690909,12.2860909 Z" id="Stroke-357"></path>
            <path d="M19.4370909,0.562909091 L19.4370909,0.562909091 C20.158,1.28381818 20.1907273,2.44290909 19.5107273,3.20381818 L7.71436364,16.1429091 L3.85709091,12.2856364 L16.7961818,0.489272727 C17.5570909,-0.190727273 18.7161818,-0.158 19.4370909,0.562909091 Z" id="Stroke-358"></path>
            <path d="M17.6871818,5.24127273 L19.5108182,3.204 C20.1908182,2.44309091 20.1580909,1.284 19.4371818,0.563090909 C18.7153636,-0.158727273 17.5562727,-0.190545455 16.7962727,0.489454545 L14.759,2.31309091 L17.6871818,5.24127273 Z" id="Stroke-359"></path>
            <path d="M0,20 L3.21454545,16.7854545" id="Stroke-360"></path>
        </g>
    </g>
</svg>