<?xml version="1.0" encoding="UTF-8"?>
<svg width="24px" height="24px" viewBox="0 0 24 24" version="1.1" xmlns="http://www.w3.org/2000/svg" xmlns:xlink="http://www.w3.org/1999/xlink">
    <!-- Generator: Sketch 51.3 (57544) - http://www.bohemiancoding.com/sketch -->
    <title>icon-unlock</title>
    <desc>Created with Sketch.</desc>
    <defs></defs>
    <g id="icon-unlock" stroke="none" stroke-width="1" fill="none" fill-rule="evenodd">
        <path d="M3.98,10.8949373 L3.98,10.8949373 L3.98,19.7050627 C3.98,20.2987692 4.42362445,20.8 4.97086294,20.8 L18.8291371,20.8 C19.3798154,20.8 19.82,20.3097799 19.82,19.7050627 L19.82,10.8949373 C19.82,10.3012308 19.3763756,9.8 18.8291371,9.8 L4.97086294,9.8 C4.42018455,9.8 3.98,10.2902201 3.98,10.8949373 L3.98,10.8949373 Z M16.6288222,7.6 C16.7963457,5.9310639 15.9969107,4.24048157 14.4499997,3.34737206 C12.3455121,2.13234561 9.65451434,2.85339629 8.43948789,4.95788383 L6.534232,3.85788383 C8.35677167,0.701152518 12.3932684,-0.380423507 15.5499997,1.44211617 C17.8020874,2.74235963 18.9979756,5.16944908 18.8366571,7.60001042 C20.4711971,7.60454138 21.8,9.08588263 21.8,10.8949373 L21.8,19.7050627 C21.8,21.5276434 20.4707868,23 18.8291371,23 L4.97086294,23 C3.33288045,23 2,21.5168909 2,19.7050627 L2,10.8949373 C2,9.07235656 3.32921316,7.6 4.97086294,7.6 L16.6288222,7.6 Z M11.9,17.5 C12.5075132,17.5 13,16.5150264 13,15.3 C13,14.0849736 12.5075132,13.1 11.9,13.1 C11.2924868,13.1 10.8,14.0849736 10.8,15.3 C10.8,16.5150264 11.2924868,17.5 11.9,17.5 Z" id="Rectangle-86" fill="#23A0D0" fill-rule="nonzero"></path>
    </g>
</svg>