<?xml version="1.0" encoding="UTF-8"?>
<svg width="24px" height="24px" viewBox="0 0 24 24" version="1.1" xmlns="http://www.w3.org/2000/svg" xmlns:xlink="http://www.w3.org/1999/xlink">
    <!-- Generator: Sketch 51.3 (57544) - http://www.bohemiancoding.com/sketch -->
    <title>icon-csv</title>
    <desc>Created with Sketch.</desc>
    <defs></defs>
    <g id="icon-csv" stroke="none" stroke-width="1" fill="none" fill-rule="evenodd">
        <path d="M6.2,19.6990412 C6.2,20.3109061 6.69022014,20.8 7.29493732,20.8 L16.1050627,20.8 C16.6987692,20.8 17.2,20.3073042 17.2,19.6995332 L17.2,7.57293999 C17.2,6.96565905 16.8549203,6.12525633 16.4292428,5.69694269 L14.7184256,3.97553046 C14.2957249,3.55021195 13.4506813,3.2 12.8376165,3.2 L7.31005199,3.2 C6.68465136,3.2 6.2,3.69291606 6.2,4.30095882 L6.2,19.6990412 Z M4,4.30095882 C4,2.47337537 5.47414121,1 7.31005199,1 L12.8376165,1 C14.0329961,1 15.4407078,1.58136696 16.2788553,2.42470506 L17.9896724,4.14611729 C18.8256563,4.98727833 19.4,6.38546415 19.4,7.57293999 L19.4,19.6995332 C19.4,21.5194642 17.9166712,23 16.1050627,23 L7.29493732,23 C5.47235656,23 4,21.5230965 4,19.6990412 L4,4.30095882 Z M7.3,8.59700928 C7.3,8.04637626 7.74849157,7.6 8.30947189,7.6 L15.0905281,7.6 C15.648044,7.6 16.1,8.04520283 16.1,8.59700928 L16.1,8.80299072 C16.1,9.35362374 15.6515084,9.8 15.0905281,9.8 L8.30947189,9.8 C7.75195596,9.8 7.3,9.35479717 7.3,8.80299072 L7.3,8.59700928 Z M7.3,11.8970093 C7.3,11.3463763 7.75364473,10.9 8.30239794,10.9 L12.8976021,10.9 C13.4512112,10.9 13.9,11.3452028 13.9,11.8970093 L13.9,12.1029907 C13.9,12.6536237 13.4463553,13.1 12.8976021,13.1 L8.30239794,13.1 C7.74878885,13.1 7.3,12.6547972 7.3,12.1029907 L7.3,11.8970093 Z M7.3,15.1970093 C7.3,14.6463763 7.73797493,14.2 8.29842811,14.2 L10.7015719,14.2 C11.2529885,14.2 11.7,14.6452028 11.7,15.1970093 L11.7,15.4029907 C11.7,15.9536237 11.2620251,16.4 10.7015719,16.4 L8.29842811,16.4 C7.74701149,16.4 7.3,15.9547972 7.3,15.4029907 L7.3,15.1970093 Z" id="Rectangle-156" fill="#B1BDC8" fill-rule="nonzero"></path>
    </g>
</svg>