<?xml version="1.0" encoding="UTF-8"?>
<svg width="24px" height="24px" viewBox="0 0 24 24" version="1.1" xmlns="http://www.w3.org/2000/svg" xmlns:xlink="http://www.w3.org/1999/xlink">
    <!-- Generator: Sketch 51.3 (57544) - http://www.bohemiancoding.com/sketch -->
    <title>icon-undo</title>
    <desc>Created with Sketch.</desc>
    <defs></defs>
    <g id="icon-undo" stroke="none" stroke-width="1" fill="none" fill-rule="evenodd">
        <path d="M7.33705213,4.43749959 L7.33705213,7.34615275 L10.958335,7.34615275 C10.958335,7.34615275 16.3902593,7.92788338 18.8044479,10.2548059 C20.9832531,12.3548535 21.2186364,19.562496 21.2186364,19.562496 C21.2186364,19.562496 20.6150893,10.8365365 10.958335,10.8365365 L7.33705213,10.8365365 L7.33705213,13.1634591 L2.81044855,9.09134464 L7.33705213,4.43749959 L7.33705213,4.43749959 Z M7.33705213,2.69230769 C6.83611747,2.69235913 6.35758923,2.89243642 6.01528388,3.24495179 L1.4886803,7.89879685 C0.805432833,8.6024307 0.843261124,9.70667526 1.5731769,10.3653347 L6.09978048,14.4374491 C6.62822162,14.8931593 7.3840136,15.009619 8.03352054,14.7354182 C8.68302749,14.4612175 9.1067014,13.8468256 9.1175162,13.1634591 L9.1175162,12.5817284 L10.9281576,12.5817284 C18.7742705,12.5817284 19.3778177,19.3879768 19.3778177,19.6788421 C19.4414612,20.5969739 20.2337734,21.3097349 21.1884591,21.3076879 L21.2789912,21.3076879 C22.2648539,21.2605822 23.0299233,20.4610698 22.9991005,19.5101403 C22.9568522,18.1896117 22.6067949,11.4822575 20.0537905,9.03898889 C17.2714381,6.35721067 11.7489818,5.69403775 11.1273282,5.63004738 L10.9281576,5.63004738 L9.1175162,5.63004738 L9.1175162,4.46658612 C9.1175162,3.50274325 8.30686442,2.72139422 7.30687477,2.72139422 L7.33705213,2.69230769 Z" id="Shape" fill="#32485C"></path>
    </g>
</svg>