<?xml version="1.0" encoding="UTF-8"?>
<svg width="24px" height="24px" viewBox="0 0 24 24" version="1.1" xmlns="http://www.w3.org/2000/svg" xmlns:xlink="http://www.w3.org/1999/xlink">
    <!-- Generator: Sketch 51.3 (57544) - http://www.bohemiancoding.com/sketch -->
    <title>icon-search</title>
    <desc>Created with Sketch.</desc>
    <defs></defs>
    <g id="icon-search" stroke="none" stroke-width="1" fill="none" fill-rule="evenodd">
        <path d="M15.0885675,16.6328287 L18.9507429,20.4949853 C19.3797189,20.9239592 20.0643768,20.922701 20.4935606,20.4935193 C20.9235989,20.0634831 20.9230122,19.3786926 20.4950266,18.9507091 L16.6328512,15.0885525 L15.0885675,16.6328287 Z M13.2606226,17.8934452 C12.1984096,18.3482209 11.0286079,18.6 9.8,18.6 C4.9398942,18.6 1,14.6601058 1,9.8 C1,4.9398942 4.9398942,1 9.8,1 C14.6601058,1 18.6,4.9398942 18.6,9.8 C18.6,11.0285985 18.3482247,12.1983917 17.8934556,13.2605982 L22.0393104,17.4064328 C23.3195885,18.6867048 23.3213599,20.7542863 22.0378444,22.0377955 C20.7570443,23.3185894 18.6895927,23.3223889 17.4064591,22.0392615 L13.2606226,17.8934452 Z M9.8,16.4 C13.4450793,16.4 16.4,13.4450793 16.4,9.8 C16.4,6.15492065 13.4450793,3.2 9.8,3.2 C6.15492065,3.2 3.2,6.15492065 3.2,9.8 C3.2,13.4450793 6.15492065,16.4 9.8,16.4 Z" id="Combined-Shape" fill="#B1BDC8" fill-rule="nonzero"></path>
    </g>
</svg>