<?xml version="1.0" encoding="UTF-8"?>
<svg width="24px" height="24px" viewBox="0 0 24 24" version="1.1" xmlns="http://www.w3.org/2000/svg" xmlns:xlink="http://www.w3.org/1999/xlink">
    <!-- Generator: Sketch 51.3 (57544) - http://www.bohemiancoding.com/sketch -->
    <title>icon-sound</title>
    <desc>Created with Sketch.</desc>
    <defs></defs>
    <g id="icon-sound" stroke="none" stroke-width="1" fill="none" fill-rule="evenodd">
        <path d="M8.4677764,8.54835172 L4.0567792,8.54835172 C4.05611754,8.54835172 4.05411514,15.4556817 4.05411514,15.4556817 C4.05411514,15.4578606 8.4673983,15.4588178 8.4673983,15.4588178 L10.9458849,19.1900829 L10.9458849,4.81420679 L8.4677764,8.54835172 Z M4.44680673,17.5206105 C3.09526551,17.5206105 2,16.4213669 2,15.0644856 L2,8.94235773 C2,7.58620901 3.09639451,6.48623281 4.44680673,6.48623281 L7.04925495,6.48623281 L10.0877879,1.90761055 C11.1376645,0.325601018 13,0.931370059 13,2.80049764 L13,21.2006754 C13,23.0850544 11.1291308,23.6622001 10.0880769,22.0949341 L7.04959022,17.5206105 L4.44680673,17.5206105 Z M14.2222222,7.11111111 L14.2222222,4.66666667 C15.1589178,4.66666667 16.4783324,4.88656911 17.8243722,5.55958899 C20.1344683,6.71463706 21.5555556,8.84626791 21.5555556,12 C21.5555556,15.1537321 20.1344683,17.2853629 17.8243722,18.440411 C16.4783324,19.1134309 15.1589178,19.3333333 14.2222222,19.3333333 L14.2222222,16.8888889 C14.3497536,16.8888889 14.6179566,16.8697315 14.9761512,16.8100324 C15.5797631,16.7094304 16.1813287,16.5289608 16.7311834,16.2540334 C18.2405317,15.4993593 19.1111111,14.1934901 19.1111111,12 C19.1111111,9.80650986 18.2405317,8.50064071 16.7311834,7.74596657 C16.1813287,7.47103924 15.5797631,7.29056955 14.9761512,7.18996757 C14.6179566,7.13026847 14.3497536,7.11111111 14.2222222,7.11111111 Z M14.2222222,10.7777778 L14.2222222,8.33333333 C14.7005844,8.33333333 15.3324991,8.43865244 15.9910388,8.76792232 C17.1553017,9.35005373 17.8888889,10.4504346 17.8888889,12 C17.8888889,13.5495654 17.1553017,14.6499463 15.9910388,15.2320777 C15.3324991,15.5613476 14.7005844,15.6666667 14.2222222,15.6666667 L14.2222222,13.2222222 C14.3549711,13.2222222 14.6397231,13.1747636 14.89785,13.0457001 C15.261365,12.8639426 15.4444444,12.5893235 15.4444444,12 C15.4444444,11.4106765 15.261365,11.1360574 14.89785,10.9542999 C14.6397231,10.8252364 14.3549711,10.7777778 14.2222222,10.7777778 Z" id="Combined-Shape" fill="#B1BDC8" fill-rule="nonzero"></path>
    </g>
</svg>