<?xml version="1.0" encoding="UTF-8"?>
<svg width="24px" height="24px" viewBox="0 0 24 24" version="1.1" xmlns="http://www.w3.org/2000/svg" xmlns:xlink="http://www.w3.org/1999/xlink">
    <!-- Generator: Sketch 51.2 (57519) - http://www.bohemiancoding.com/sketch -->
    <title>icon-help</title>
    <desc>Created with Sketch.</desc>
    <defs></defs>
    <g id="icon-help" stroke="none" stroke-width="1" fill="none" fill-rule="evenodd">
        <path d="M12,1 C5.92486775,1 1,5.92486775 1,12 C1,18.0751322 5.92486775,23 12,23 C18.0751322,23 23,18.0751322 23,12 C23,5.92486775 18.0751322,1 12,1 L12,1 Z M12,21.4285714 C6.79274379,21.4285714 2.57142857,17.2072562 2.57142857,12 C2.57142857,6.79274379 6.79274379,2.57142857 12,2.57142857 C17.2072562,2.57142857 21.4285714,6.79274379 21.4285714,12 C21.4285714,17.2072562 17.2072562,21.4285714 12,21.4285714 Z" id="Shape" fill="#B1BDC8"></path>
        <path d="M12,5.68753808 C8.83764706,5.68753808 8,8.08568538 8,9.35069587 C8,9.75531711 8.31603429,10.0833274 8.70588235,10.0833274 C9.09573041,10.0833274 9.41176471,9.75531711 9.41176471,9.35069587 C9.41176471,9.12602219 9.48235294,7.1528012 12,7.1528012 C14.3952941,7.1528012 14.5882353,8.53014853 14.5882353,10.3275379 C14.5882353,10.6059379 13.9294118,11.0455169 13.4447059,11.3629906 C12.5035294,11.9979379 11.2941176,12.7842958 11.2941176,14.2349063 C11.2941176,14.6395275 11.6101519,14.9675378 12,14.9675378 C12.3898481,14.9675378 12.7058824,14.6395275 12.7058824,14.2349063 C12.7058824,13.6341484 13.2988235,13.1994537 14.2023529,12.5986958 C15.1058824,11.9979379 16,11.4118327 16,10.3275379 C16,8.9404222 16,5.68753808 12,5.68753808 Z" id="Shape" fill="#B1BDC8"></path>
        <ellipse id="Oval" fill="#B1BDC8" cx="12" cy="17.5" rx="1" ry="1"></ellipse>
    </g>
</svg>