<?xml version="1.0" encoding="UTF-8"?>
<svg width="24px" height="24px" viewBox="0 0 24 24" version="1.1" xmlns="http://www.w3.org/2000/svg" xmlns:xlink="http://www.w3.org/1999/xlink">
    <!-- Generator: Sketch 64 (93537) - https://sketch.com -->
    <title>CompareIcon</title>
    <desc>Created with Sketch.</desc>
    <g id="CompareIcon" stroke="none" stroke-width="1" fill="none" fill-rule="evenodd">
        <path d="M12,1 C13.3333333,1 14,1.66666667 14,3 L14,6 L22,6 L22,8 L14,8 L14,15 C14,16.3333333 13.3333333,17 12,17 L12,20 L22,20 L22,22 L12,22 C10.7272727,22 10.0619835,21.392562 10.0041322,20.177686 L10,20 L10,17 L2,17 L2,1 L12,1 Z M8,6 L8,8 L4,8 L4,10 L8,10 L8,12 L11,9 L8,6 Z" id="Combined-Shape" fill="#4FBDC6"></path>
        <polygon id="Path" fill="#4FBDC6" transform="translate(18.000000, 14.000000) scale(-1, 1) translate(-18.000000, -14.000000) " points="15 13 18 13 18 11 21 14 18 17 18 15 15 15"></polygon>
    </g>
</svg>